{
  "source": "C:\\Users\\Peter\\Desktop\\stuff\\MIUN\\quantitative_research\\video_compression\\videos\\BVI-HD\\BVI-HD_CDVL_videos\\ORIG\\Grass_1920x1080_60fps.mp4",
  "output": "C:\\Users\\Peter\\Desktop\\stuff\\MIUN\\quantitative_research\\video_compression\\compressed_videos\\BVI-HD\\av1\\8\\Grass_1920x1080_60fps_av1.mkv",
  "codec": "av1",
  "ok": "Input #0, mov,mp4,m4a,3gp,3g2,mj2, from 'C:\\Users\\Peter\\Desktop\\stuff\\MIUN\\quantitative_research\\video_compression\\videos\\BVI-HD\\BVI-HD_CDVL_videos\\ORIG\\Grass_1920x1080_60fps.mp4':\n  Metadata:\n    major_brand     : isom\n    minor_version   : 512\n    compatible_brands: isomiso2avc1mp41\n    encoder         : Lavf54.28.101\n  Duration: 00:00:05.00, start: 0.000000, bitrate: 655968 kb/s\n  Stream #0:0[0x1](und): Video: h264 (High 4:4:4 Predictive) (avc1 / 0x31637661), yuv420p(progressive), 1920x1080, 655963 kb/s, 60 fps, 60 tbr, 60 tbn (default)\n    Metadata:\n      handler_name    : VideoHandler\n      vendor_id       : [0][0][0][0]\n[out#0/matroska @ 000002a4334a9180] Codec AVOption b:a (set bitrate (in bits/s)) has not been used for any stream. The most likely reason is either wrong type (e.g. a video option with no video streams) or that it is a private option of some decoder which was not actually used for any stream.\nStream mapping:\n  Stream #0:0 -> #0:0 (h264 (native) -> av1 (libsvtav1))\nPress [q] to stop, [?] for help\nSvt[info]: -------------------------------------------\nSvt[info]: SVT [version]:\tSVT-AV1 Encoder Lib v3.1.0-19-g6ecfe8ec\nSvt[info]: SVT [build]  :\tGCC 15.2.0\t 64 bit\nSvt[info]: LIB Build date: Aug 17 2025 11:37:13\nSvt[info]: -------------------------------------------\nSvt[info]: Level of Parallelism: 5\nSvt[info]: Number of PPCS 93\nSvt[info]: [asm level on system : up to avx2]\nSvt[info]: [asm level selected : up to avx2]\nSvt[info]: -------------------------------------------\nSvt[info]: SVT [config]: main profile\ttier (auto)\tlevel (auto)\nSvt[info]: SVT [config]: width / height / fps numerator / fps denominator \t\t: 1920 / 1080 / 60 / 1\nSvt[info]: SVT [config]: bit-depth / color format \t\t\t\t\t: 8 / YUV420\nSvt[info]: SVT [config]: preset / tune / pred struct \t\t\t\t\t: 4 / PSNR / random access\nSvt[info]: SVT [config]: gop size / mini-gop size / key-frame type \t\t\t: 321 / 16 / key frame\nSvt[info]: SVT [config]: BRC mode / target bitrate (kbps)\t\t\t\t: VBR / 8000 \nSvt[info]: SVT [config]: AQ mode / Variance Boost \t\t\t\t\t: 2 / 0\nSvt[info]: SVT [config]: sharpness / luminance-based QP bias \t\t\t\t: 0 / 0\nSvt[info]: SVT [config]: QP scale compress strength \t\t\t\t\t: 0\nSvt[info]: -------------------------------------------\nOutput #0, matroska, to 'C:\\Users\\Peter\\Desktop\\stuff\\MIUN\\quantitative_research\\video_compression\\compressed_videos\\BVI-HD\\av1\\8\\Grass_1920x1080_60fps_av1.mkv':\n  Metadata:\n    major_brand     : isom\n    minor_version   : 512\n    compatible_brands: isomiso2avc1mp41\n    encoder         : Lavf62.3.100\n  Stream #0:0(und): Video: av1 (AV01 / 0x31305641), yuv420p(tv, progressive), 1920x1080, q=2-31, 8000 kb/s, 60 fps, 1k tbn (default)\n    Metadata:\n      encoder         : Lavc62.11.100 libsvtav1\n      handler_name    : VideoHandler\n      vendor_id       : [0][0][0][0]\n    Side data:\n      cpb: bitrate max/min/avg: 0/0/8000000 buffer size: 8000000 vbv_delay: N/A\nframe=    0 fps=0.0 q=0.0 size=       0KiB time=N/A bitrate=N/A speed=N/A elapsed=0:00:01.60    \nframe=    0 fps=0.0 q=0.0 size=       0KiB time=N/A bitrate=N/A speed=N/A elapsed=0:00:02.22    \nframe=    0 fps=0.0 q=0.0 size=       0KiB time=N/A bitrate=N/A speed=N/A elapsed=0:00:02.80    \nframe=    0 fps=0.0 q=0.0 size=       0KiB time=N/A bitrate=N/A speed=N/A elapsed=0:00:03.41    \nframe=    0 fps=0.0 q=0.0 size=       0KiB time=N/A bitrate=N/A speed=N/A elapsed=0:00:04.05    \nframe=    0 fps=0.0 q=0.0 size=       0KiB time=N/A bitrate=N/A speed=N/A elapsed=0:00:04.61    \nframe=    0 fps=0.0 q=0.0 size=       0KiB time=N/A bitrate=N/A speed=N/A elapsed=0:00:05.16    \nframe=    0 fps=0.0 q=0.0 size=       0KiB time=N/A bitrate=N/A speed=N/A elapsed=0:00:05.70    \nframe=    0 fps=0.0 q=0.0 size=       0KiB time=N/A bitrate=N/A speed=N/A elapsed=0:00:06.23    \nframe=    0 fps=0.0 q=0.0 size=       0KiB time=N/A bitrate=N/A speed=N/A elapsed=0:00:06.79    \nframe=    1 fps=0.1 q=10.0 size=       1KiB time=00:00:00.00 bitrate=N/A speed=   0x elapsed=0:00:07.34    \nframe=    1 fps=0.1 q=10.0 size=       1KiB time=00:00:00.00 bitrate=N/A speed=   0x elapsed=0:00:07.90    \nframe=    1 fps=0.1 q=10.0 size=       1KiB time=00:00:00.00 bitrate=N/A speed=   0x elapsed=0:00:08.45    \nframe=    1 fps=0.1 q=10.0 size=       1KiB time=00:00:00.00 bitrate=N/A speed=   0x elapsed=0:00:09.00    \nframe=    4 fps=0.4 q=37.0 size=       1KiB time=00:00:00.05 bitrate= 113.9kbits/s speed=0.00523x elapsed=0:00:09.56    \nframe=    6 fps=0.6 q=36.0 size=       1KiB time=00:00:00.08 bitrate=  68.4kbits/s speed=0.00822x elapsed=0:00:10.13    \nframe=   10 fps=0.9 q=36.0 size=       1KiB time=00:00:00.15 bitrate=  38.0kbits/s speed=0.0141x elapsed=0:00:10.66    \nframe=   13 fps=1.2 q=33.0 size=       1KiB time=00:00:00.18 bitrate=  31.1kbits/s speed=0.0163x elapsed=0:00:11.25    \nframe=   16 fps=1.4 q=34.0 size=       1KiB time=00:00:00.25 bitrate=  22.8kbits/s speed=0.0211x elapsed=0:00:11.82    \nframe=   19 fps=1.5 q=35.0 size=       1KiB time=00:00:00.30 bitrate=  19.0kbits/s speed=0.0242x elapsed=0:00:12.39    \nframe=   22 fps=1.7 q=36.0 size=       1KiB time=00:00:00.35 bitrate=  16.3kbits/s speed=0.027x elapsed=0:00:12.95    \nframe=   24 fps=1.8 q=36.0 size=       1KiB time=00:00:00.38 bitrate=  14.9kbits/s speed=0.0284x elapsed=0:00:13.51    \nframe=   27 fps=1.9 q=34.0 size=       1KiB time=00:00:00.43 bitrate=  13.1kbits/s speed=0.0308x elapsed=0:00:14.07    \nframe=   31 fps=2.1 q=30.0 size=       1KiB time=00:00:00.50 bitrate=  11.4kbits/s speed=0.0342x elapsed=0:00:14.63    \nframe=   34 fps=2.2 q=35.0 size=       1KiB time=00:00:00.55 bitrate=  10.4kbits/s speed=0.0361x elapsed=0:00:15.21    \nframe=   38 fps=2.4 q=35.0 size=       1KiB time=00:00:00.61 bitrate=   9.2kbits/s speed=0.039x elapsed=0:00:15.80    \nframe=   39 fps=2.4 q=34.0 size=       1KiB time=00:00:00.63 bitrate=   9.0kbits/s speed=0.0387x elapsed=0:00:16.37    \nframe=   43 fps=2.5 q=34.0 size=       1KiB time=00:00:00.70 bitrate=   8.1kbits/s speed=0.0413x elapsed=0:00:16.93    \nframe=   47 fps=2.7 q=30.0 size=       1KiB time=00:00:00.76 bitrate=   7.4kbits/s speed=0.0438x elapsed=0:00:17.50    \nframe=   49 fps=2.7 q=18.0 size=       1KiB time=00:00:00.80 bitrate=   7.1kbits/s speed=0.0442x elapsed=0:00:18.08    \nframe=   53 fps=2.8 q=32.0 size=       1KiB time=00:00:00.85 bitrate=   6.7kbits/s speed=0.0456x elapsed=0:00:18.63    \nframe=   55 fps=2.9 q=34.0 size=       1KiB time=00:00:00.88 bitrate=   6.4kbits/s speed=0.046x elapsed=0:00:19.21    \nframe=   58 fps=2.9 q=35.0 size=       1KiB time=00:00:00.95 bitrate=   6.0kbits/s speed=0.048x elapsed=0:00:19.77    \nframe=   63 fps=3.1 q=30.0 size=       1KiB time=00:00:01.01 bitrate=   5.6kbits/s speed=0.0499x elapsed=0:00:20.38    \nframe=   65 fps=3.1 q=18.0 size=       1KiB time=00:00:01.05 bitrate=   5.4kbits/s speed=0.0501x elapsed=0:00:20.95    \nframe=   69 fps=3.2 q=32.0 size=       1KiB time=00:00:01.11 bitrate=   5.1kbits/s speed=0.052x elapsed=0:00:21.47    \nframe=   71 fps=3.2 q=35.0 size=       1KiB time=00:00:01.16 bitrate=   4.9kbits/s speed=0.053x elapsed=0:00:21.99    \nframe=   75 fps=3.3 q=35.0 size=       1KiB time=00:00:01.21 bitrate=   4.7kbits/s speed=0.054x elapsed=0:00:22.52    \nframe=   79 fps=3.4 q=31.0 size=       1KiB time=00:00:01.30 bitrate=   4.4kbits/s speed=0.0564x elapsed=0:00:23.06    \nframe=   82 fps=3.5 q=36.0 size=       1KiB time=00:00:01.35 bitrate=   4.2kbits/s speed=0.0571x elapsed=0:00:23.65    \nframe=   86 fps=3.6 q=36.0 size=       1KiB time=00:00:01.41 bitrate=   4.0kbits/s speed=0.0585x elapsed=0:00:24.21    \nframe=   90 fps=3.6 q=36.0 size=       1KiB time=00:00:01.48 bitrate=   3.8kbits/s speed=0.0599x elapsed=0:00:24.75    \nframe=   95 fps=3.8 q=32.0 size=       1KiB time=00:00:01.56 bitrate=   3.6kbits/s speed=0.0619x elapsed=0:00:25.32    \nframe=   97 fps=3.7 q=20.0 size=       1KiB time=00:00:01.58 bitrate=   3.6kbits/s speed=0.0611x elapsed=0:00:25.89    \nframe=  100 fps=3.8 q=37.0 size=       1KiB time=00:00:01.65 bitrate=   3.5kbits/s speed=0.0622x elapsed=0:00:26.53    \nframe=  103 fps=3.8 q=36.0 size=       1KiB time=00:00:01.68 bitrate=   3.4kbits/s speed=0.062x elapsed=0:00:27.13    \nframe=  106 fps=3.8 q=37.0 size=       1KiB time=00:00:01.73 bitrate=   3.3kbits/s speed=0.0625x elapsed=0:00:27.73    \nframe=  110 fps=3.9 q=37.0 size=       1KiB time=00:00:01.81 bitrate=   3.1kbits/s speed=0.0641x elapsed=0:00:28.35    \nframe=  111 fps=3.8 q=36.0 size=       1KiB time=00:00:01.83 bitrate=   3.1kbits/s speed=0.0633x elapsed=0:00:28.96    \nframe=  113 fps=3.8 q=21.0 size=       1KiB time=00:00:01.85 bitrate=   3.1kbits/s speed=0.0625x elapsed=0:00:29.58    \nframe=  116 fps=3.8 q=37.0 size=       1KiB time=00:00:01.91 bitrate=   3.0kbits/s speed=0.0634x elapsed=0:00:30.25    \nframe=  118 fps=3.8 q=37.0 size=       1KiB time=00:00:01.95 bitrate=   2.9kbits/s speed=0.0632x elapsed=0:00:30.83    \nframe=  119 fps=3.8 q=36.0 size=       1KiB time=00:00:01.96 bitrate=   2.9kbits/s speed=0.0626x elapsed=0:00:31.41    \nframe=  124 fps=3.9 q=37.0 size=       1KiB time=00:00:02.03 bitrate=   2.8kbits/s speed=0.0636x elapsed=0:00:31.95    \nframe=  126 fps=3.9 q=37.0 size=       1KiB time=00:00:02.08 bitrate=   2.7kbits/s speed=0.0641x elapsed=0:00:32.52    \nframe=  127 fps=3.8 q=36.0 size=       1KiB time=00:00:02.10 bitrate=   2.7kbits/s speed=0.0635x elapsed=0:00:33.05    \nframe=  131 fps=3.9 q=36.0 size=       1KiB time=00:00:02.15 bitrate=   2.6kbits/s speed=0.064x elapsed=0:00:33.61    \nframe=  134 fps=3.9 q=37.0 size=       1KiB time=00:00:02.21 bitrate=   2.6kbits/s speed=0.0648x elapsed=0:00:34.23    \nframe=  137 fps=3.9 q=30.0 size=       1KiB time=00:00:02.26 bitrate=   2.5kbits/s speed=0.0652x elapsed=0:00:34.78    \nframe=  142 fps=4.0 q=37.0 size=       1KiB time=00:00:02.35 bitrate=   2.4kbits/s speed=0.0666x elapsed=0:00:35.30    \nframe=  143 fps=4.0 q=36.0 size=       1KiB time=00:00:02.36 bitrate=   2.4kbits/s speed=0.066x elapsed=0:00:35.85    \nframe=  145 fps=4.0 q=21.0 size=       1KiB time=00:00:02.40 bitrate=   2.4kbits/s speed=0.0659x elapsed=0:00:36.39    \nframe=  149 fps=4.0 q=34.0 size=       1KiB time=00:00:02.46 bitrate=   2.3kbits/s speed=0.0667x elapsed=0:00:36.97    \nframe=  152 fps=4.1 q=37.0 size=       1KiB time=00:00:02.51 bitrate=   2.3kbits/s speed=0.0671x elapsed=0:00:37.49    \nframe=  157 fps=4.1 q=34.0 size=       1KiB time=00:00:02.60 bitrate=   2.2kbits/s speed=0.0684x elapsed=0:00:38.01    \nframe=  160 fps=4.2 q=35.0 size=       1KiB time=00:00:02.65 bitrate=   2.1kbits/s speed=0.0688x elapsed=0:00:38.52    \nframe=  164 fps=4.2 q=37.0 size=       1KiB time=00:00:02.71 bitrate=   2.1kbits/s speed=0.0695x elapsed=0:00:39.09    \nframe=  167 fps=4.2 q=36.0 size=       1KiB time=00:00:02.76 bitrate=   2.1kbits/s speed=0.0698x elapsed=0:00:39.65    \nframe=  172 fps=4.3 q=37.0 size=       1KiB time=00:00:02.85 bitrate=   2.0kbits/s speed=0.0709x elapsed=0:00:40.21    \nframe=  175 fps=4.3 q=36.0 size=       1KiB time=00:00:02.90 bitrate=   2.0kbits/s speed=0.0712x elapsed=0:00:40.75    \nframe=  177 fps=4.3 q=21.0 size=       1KiB time=00:00:02.93 bitrate=   1.9kbits/s speed=0.071x elapsed=0:00:41.33    \nframe=  181 fps=4.3 q=34.0 size=       1KiB time=00:00:03.00 bitrate=   1.9kbits/s speed=0.0717x elapsed=0:00:41.85    \nframe=  183 fps=4.3 q=36.0 size=       1KiB time=00:00:03.03 bitrate=   1.9kbits/s speed=0.0716x elapsed=0:00:42.39    \nframe=  189 fps=4.4 q=34.0 size=       1KiB time=00:00:03.13 bitrate=   1.8kbits/s speed=0.073x elapsed=0:00:42.90    \nframe=  192 fps=4.4 q=35.0 size=       1KiB time=00:00:03.18 bitrate=   1.8kbits/s speed=0.0733x elapsed=0:00:43.43    \nframe=  195 fps=4.4 q=36.0 size=       1KiB time=00:00:03.23 bitrate=   1.8kbits/s speed=0.0735x elapsed=0:00:43.96    \nframe=  199 fps=4.5 q=36.0 size=       1KiB time=00:00:03.30 bitrate=   1.7kbits/s speed=0.0742x elapsed=0:00:44.49    \nframe=  203 fps=4.5 q=36.0 size=       1KiB time=00:00:03.36 bitrate=   1.7kbits/s speed=0.0748x elapsed=0:00:45.02    \nframe=  209 fps=4.6 q=20.0 size=       1KiB time=00:00:03.46 bitrate=   1.6kbits/s speed=0.0761x elapsed=0:00:45.54    \nframe=  213 fps=4.6 q=34.0 size=       1KiB time=00:00:03.50 bitrate=   1.6kbits/s speed=0.0759x elapsed=0:00:46.09    \nframe=  217 fps=4.6 q=30.0 size=       1KiB time=00:00:03.60 bitrate=   1.6kbits/s speed=0.0771x elapsed=0:00:46.66    \nframe=  221 fps=4.7 q=34.0 size=       1KiB time=00:00:03.66 bitrate=   1.6kbits/s speed=0.0777x elapsed=0:00:47.21    \nframe=  225 fps=4.7 q=20.0 size=       1KiB time=00:00:03.73 bitrate=   1.5kbits/s speed=0.0782x elapsed=0:00:47.74    \nframe=  225 fps=4.7 q=20.0 size=       1KiB time=00:00:03.73 bitrate=   1.5kbits/s speed=0.0774x elapsed=0:00:48.25    \nframe=  233 fps=4.8 q=29.0 size=       1KiB time=00:00:03.86 bitrate=   1.5kbits/s speed=0.0792x elapsed=0:00:48.83    \nframe=  237 fps=4.8 q=33.0 size=       1KiB time=00:00:03.93 bitrate=   1.4kbits/s speed=0.0796x elapsed=0:00:49.39    \nframe=  241 fps=4.8 q=20.0 size=       1KiB time=00:00:04.00 bitrate=   1.4kbits/s speed=0.0801x elapsed=0:00:49.94    \nframe=  241 fps=4.8 q=20.0 size=       1KiB time=00:00:04.00 bitrate=   1.4kbits/s speed=0.0792x elapsed=0:00:50.48    \nframe=  249 fps=4.9 q=29.0 size=       1KiB time=00:00:04.13 bitrate=   1.4kbits/s speed=0.081x elapsed=0:00:51.01    \nframe=  251 fps=4.9 q=35.0 size=       1KiB time=00:00:04.16 bitrate=   1.4kbits/s speed=0.0809x elapsed=0:00:51.52    \nframe=  257 fps=4.9 q=19.0 size=       1KiB time=00:00:04.26 bitrate=   1.3kbits/s speed=0.082x elapsed=0:00:52.06    \nframe=  261 fps=5.0 q=33.0 size=       1KiB time=00:00:04.33 bitrate=   1.3kbits/s speed=0.0824x elapsed=0:00:52.59    \nframe=  265 fps=5.0 q=29.0 size=       1KiB time=00:00:04.40 bitrate=   1.3kbits/s speed=0.0828x elapsed=0:00:53.12    \nframe=  273 fps=5.1 q=19.0 size=       1KiB time=00:00:04.50 bitrate=   1.3kbits/s speed=0.0839x elapsed=0:00:53.66    \nframe=  273 fps=5.0 q=19.0 size=       1KiB time=00:00:04.53 bitrate=   1.3kbits/s speed=0.0836x elapsed=0:00:54.23    \nframe=  277 fps=5.1 q=32.0 size=       1KiB time=00:00:04.60 bitrate=   1.2kbits/s speed=0.084x elapsed=0:00:54.75    \nframe=  281 fps=5.1 q=28.0 size=       1KiB time=00:00:04.66 bitrate=   1.2kbits/s speed=0.0844x elapsed=0:00:55.30    \nframe=  285 fps=5.1 q=32.0 size=       1KiB time=00:00:04.73 bitrate=   1.2kbits/s speed=0.0848x elapsed=0:00:55.83    \n[out#0/matroska @ 000002a4334a9180] video:5169KiB audio:0KiB subtitle:0KiB other streams:0KiB global headers:0KiB muxing overhead: 0.040982%\nframe=  300 fps=5.3 q=36.0 Lsize=    5171KiB time=00:00:04.98 bitrate=8499.9kbits/s speed=0.0888x elapsed=0:00:56.14    \n",
  "seconds": 56.91385221481323,
  "probe_out": {}
}